<svg width="64" height="64" viewBox="0 0 64 64" xmlns="http://www.w3.org/2000/svg">
  <defs>
    <radialGradient id="healGradient" cx="50%" cy="50%" r="50%">
      <stop offset="0%" style="stop-color:#ffffff;stop-opacity:1" />
      <stop offset="40%" style="stop-color:#e6ffe6;stop-opacity:1" />
      <stop offset="80%" style="stop-color:#b3ffb3;stop-opacity:1" />
      <stop offset="100%" style="stop-color:#80ff80;stop-opacity:1" />
    </radialGradient>
    <filter id="healGlow">
      <feGaussianBlur stdDeviation="2" result="coloredBlur"/>
      <feMerge> 
        <feMergeNode in="coloredBlur"/>
        <feMergeNode in="SourceGraphic"/>
      </feMerge>
    </filter>
  </defs>
  
  <circle cx="32" cy="32" r="24" fill="url(#healGradient)" filter="url(#healGlow)"/>
  
  <path d="M 32 16 L 32 48" stroke="#00cc00" stroke-width="4" opacity="0.8"/>
  <path d="M 16 32 L 48 32" stroke="#00cc00" stroke-width="4" opacity="0.8"/>
  
  <circle cx="32" cy="32" r="6" fill="#00ff00" opacity="0.6"/>
  <circle cx="32" cy="32" r="4" fill="#ffffff" opacity="0.8"/>
  
  <path d="M 32 20 L 28 16 L 32 12 L 36 16 Z" fill="#00cc00" opacity="0.7"/>
  <path d="M 32 44 L 28 48 L 32 52 L 36 48 Z" fill="#00cc00" opacity="0.7"/>
  <path d="M 20 32 L 16 28 L 12 32 L 16 36 Z" fill="#00cc00" opacity="0.7"/>
  <path d="M 44 32 L 48 28 L 52 32 L 48 36 Z" fill="#00cc00" opacity="0.7"/>
  
  <circle cx="32" cy="20" r="2" fill="#ffffff" opacity="0.9"/>
  <circle cx="32" cy="44" r="2" fill="#ffffff" opacity="0.9"/>
  <circle cx="20" cy="32" r="2" fill="#ffffff" opacity="0.9"/>
  <circle cx="44" cy="32" r="2" fill="#ffffff" opacity="0.9"/>
  
  <circle cx="28" cy="28" r="1" fill="#ffffff" opacity="0.7"/>
  <circle cx="36" cy="28" r="1" fill="#ffffff" opacity="0.7"/>
  <circle cx="28" cy="36" r="1" fill="#ffffff" opacity="0.7"/>
  <circle cx="36" cy="36" r="1" fill="#ffffff" opacity="0.7"/>
</svg> 